The.Possession.2012.TS.XViD.AC3.SeeN-CM8

Rating 	6.2 / 10        3,375 people voted

Released	2012

Genre	Horror, Thriller

Actors	Natasha Calis, Jeffrey Dean Morgan, Kyra Sedgwick

Plot	A young girl buys an antique box at a yard sale, unaware that inside the collectible lives a malicious ancient spirit. The girl's father teams with his 
ex-wife to find a way to end the curse upon their child.

IMDB link	http://www.imdb.com/title/tt0431021/

Updated 	
08.09.2012 15:18 UTC

Thx SeeN

****Please read notes*****

Sources Video: Cam .mp4 - Thx
Sources Audio: LiNe  - DrunkenNinja , Thx , cheers bro, awesome as usual

Video: 656x304 @1200Kbps 2pass
Audio: English AC3 2.0 @ 128Kbps
Subtitles : None
Sample: Yes, included

Complete name                            :

The.Possession.2012.TS.XViD.AC3.SeeN-CM8.avi
Format                                   : AVI
Format/Info                              : Audio Video Interleave
File size                                : 827 MiB
Duration                                 : 1h 26mn
Overall bit rate                         : 1 335 Kbps
Writing library                          : VirtualDub build 34807/release

Video
ID                                       : 0
Format                                   : MPEG-4 Visual
Format profile                           : Advanced Simple@L5
Muxing mode                              : Packed bitstream
Codec ID                                 : XVID
Duration                                 : 1h 26mn
Bit rate                                 : 1 194 Kbps
Width                                    : 656 pixels
Height                                   : 304 pixels
Display aspect ratio                     : 2.2:1
Frame rate                               : 30.000 fps
Scan type                                : Progressive
Stream size                              : 740 MiB (90%)
Writing library                          : XviD 64

Audio
ID                                       : 1
Format                                   : AC-3
Bit rate                                 : 128 Kbps
Channel(s)                               : 2 channels
Channel positions                        : Front: L R
Sampling rate                            : 48.0 KHz
Stream size                              : 79.3 MiB (10%)

Preview:
 
http://www.tinypix.me/viewer.php?file=l0ad939ya7.jpeg 
http://www.tinypix.me/viewer.php?file=a1fwgdyzv4.png 
http://www.tinypix.me/viewer.php?file=0iyehhw2ue.png 
http://www.tinypix.me/viewer.php?file=f3nfe8j7fq.jpg

Plot:
A young girl buys an antique box at a yard sale, unaware that inside the
collectible lives a malicious ancient spirit. The girl's father teams with
his ex-wife to find a way to end the curse upon their child.

Director: Ole Bornedal
Writers: Juliet Snowden, Stiles White
Stars: Natasha Calis, Jeffrey Dean Morgan and Kyra Sedgwick 

Thank you..